<?xml version="1.0" encoding="UTF-8" standalone="no"?>
<!-- Created using Krita: https://krita.org -->

<svg
   width="360pt"
   height="360pt"
   viewBox="0 0 360 360"
   version="1.1"
   id="svg6520"
   sodipodi:docname="FD2.svg"
   inkscape:version="1.2.2 (b0a8486541, 2022-12-01)"
   xmlns:inkscape="http://www.inkscape.org/namespaces/inkscape"
   xmlns:sodipodi="http://sodipodi.sourceforge.net/DTD/sodipodi-0.dtd"
   xmlns:xlink="http://www.w3.org/1999/xlink"
   xmlns="http://www.w3.org/2000/svg"
   xmlns:svg="http://www.w3.org/2000/svg">
  <sodipodi:namedview
     id="namedview6522"
     pagecolor="#ffffff"
     bordercolor="#000000"
     borderopacity="0.25"
     inkscape:showpageshadow="2"
     inkscape:pageopacity="0.0"
     inkscape:pagecheckerboard="0"
     inkscape:deskcolor="#d1d1d1"
     inkscape:document-units="pt"
     showgrid="false"
     inkscape:lockguides="false"
     inkscape:zoom="1.7375"
     inkscape:cx="237.41007"
     inkscape:cy="210.64748"
     inkscape:window-width="1920"
     inkscape:window-height="1012"
     inkscape:window-x="0"
     inkscape:window-y="0"
     inkscape:window-maximized="1"
     inkscape:current-layer="svg6520" />
  <defs
     id="defs6513">
    <linearGradient
       id="linearGradient15083"
       inkscape:swatch="solid">
      <stop
         style="stop-color:#000000;stop-opacity:1;"
         offset="0"
         id="stop15081" />
    </linearGradient>
    <linearGradient
       id="linearGradient15039"
       inkscape:swatch="solid">
      <stop
         style="stop-color:#04d201;stop-opacity:1;"
         offset="0"
         id="stop15037" />
    </linearGradient>
    <linearGradient
       id="linearGradient11207"
       inkscape:swatch="solid">
      <stop
         style="stop-color:#000000;stop-opacity:1;"
         offset="0"
         id="stop11205" />
    </linearGradient>
    <linearGradient
       id="linearGradient11161"
       inkscape:swatch="solid">
      <stop
         style="stop-color:#000000;stop-opacity:1;"
         offset="0"
         id="stop11159" />
    </linearGradient>
    <linearGradient
       inkscape:collect="always"
       xlink:href="#linearGradient11161"
       id="linearGradient15085"
       x1="253.68951"
       y1="124.60692"
       x2="302.54266"
       y2="124.60692"
       gradientUnits="userSpaceOnUse"
       gradientTransform="matrix(0.77871624,0,0,0.76756117,-12.944285,0.06697598)" />
  </defs>
  <path
     id="shape3"
     transform="translate(36.6130787267087, 170.779830565748)"
     fill="none"
     stroke="#0b0800"
     stroke-width="0.6888"
     stroke-linecap="square"
     stroke-linejoin="bevel"
     d="M45.5661 0.000913286C104.206 0.049447 133.664 0.0491426 133.941 0L105.808 28.1539L62.8177 27.7422L43.8601 62.2821L0 85.2392C0.00115911 85.2041 15.1899 56.7914 45.5661 0.000913286Z"
     sodipodi:nodetypes="ccccccc" />
  <path
     id="shape4"
     transform="translate(194.266867116297, 129.639520419805)"
     fill="none"
     stroke="#0b0800"
     stroke-width="0.6888"
     stroke-linecap="square"
     stroke-linejoin="bevel"
     d="M37.6082 28.4472C55.4838 9.79881 64.5336 0.432897 64.7576 0.349415C82.8703 -0.578306 94.2573 0.341347 98.9188 3.10837C105.911 7.25892 116.743 14.7735 118.385 26.0393C120.027 37.305 118.918 50.1048 114.116 58.1802C109.314 66.2556 98.5385 79.6213 86.1901 84.269C73.8418 88.9168 72.6171 88.6288 66.5483 89.2675C62.5025 89.6934 40.3197 89.7785 0 89.5227L35.3542 60.9482C52.1535 61.6916 62.9638 61.7268 67.785 61.0538C75.0168 60.0443 85.8562 54.5445 87.8872 47.4237C89.9183 40.303 89.7475 32.9382 82.3355 30.3199C74.9235 27.7016 74.9235 27.7016 37.6082 28.4472Z"
     sodipodi:nodetypes="cczzzzzcczzcc" />
  <path
     style="fill:#000000;fill-opacity:0;fill-rule:evenodd;stroke:#000000;stroke-width:0"
     d="m 50.928776,338.54645 c 0.774385,-1.4004 9.940629,-18.52692 39.396798,-73.61033 l 19.532156,-36.52537 58.0556,-0.0512 58.05561,-0.0512 -18.21181,18.20059 -18.21182,18.20058 -28.58285,-0.29309 c -22.82692,-0.23406 -28.62956,-0.24199 -28.81478,-0.0394 -0.12756,0.13955 -5.84526,10.49451 -12.706,23.01101 -11.02336,20.11064 -12.55905,22.80987 -13.20466,23.20941 -0.97932,0.60605 -55.691285,29.22063 -55.870755,29.22063 -0.07741,0 0.175716,-0.5723 0.562511,-1.27177 z"
     id="path7904"
     transform="scale(0.75)" />
  <path
     style="fill:#000000;fill-opacity:0;fill-rule:evenodd;stroke:#000000;stroke-width:0"
     d="m 50.928776,338.54645 c 0.774385,-1.4004 9.940629,-18.52692 39.396798,-73.61033 l 19.532156,-36.52537 58.0556,-0.0512 58.05561,-0.0512 -18.21181,18.20059 -18.21182,18.20058 -28.58285,-0.29309 c -22.82692,-0.23406 -28.62956,-0.24199 -28.81478,-0.0394 -0.12756,0.13955 -5.84526,10.49451 -12.706,23.01101 -11.02336,20.11064 -12.55905,22.80987 -13.20466,23.20941 -0.97932,0.60605 -55.691285,29.22063 -55.870755,29.22063 -0.07741,0 0.175716,-0.5723 0.562511,-1.27177 z"
     id="path7906"
     transform="scale(0.75)" />
  <path
     style="fill:#000000;fill-opacity:0;fill-rule:evenodd;stroke:#000000;stroke-width:0"
     d="m 50.928776,338.54645 c 0.774385,-1.4004 9.940629,-18.52692 39.396798,-73.61033 l 19.532156,-36.52537 58.0556,-0.0512 58.05561,-0.0512 -18.21181,18.20059 -18.21182,18.20058 -28.58285,-0.29309 c -22.82692,-0.23406 -28.62956,-0.24199 -28.81478,-0.0394 -0.12756,0.13955 -5.84526,10.49451 -12.706,23.01101 -11.02336,20.11064 -12.55905,22.80987 -13.20466,23.20941 -0.97932,0.60605 -55.691285,29.22063 -55.870755,29.22063 -0.07741,0 0.175716,-0.5723 0.562511,-1.27177 z"
     id="path7908"
     transform="scale(0.75)" />
  <path
     style="fill:#000000;fill-opacity:0;fill-rule:evenodd;stroke:#000000;stroke-width:0"
     d="m 50.928776,338.54645 c 0.774385,-1.4004 9.940629,-18.52692 39.396798,-73.61033 l 19.532156,-36.52537 58.0556,-0.0512 58.05561,-0.0512 -18.21181,18.20059 -18.21182,18.20058 -28.58285,-0.29309 c -22.82692,-0.23406 -28.62956,-0.24199 -28.81478,-0.0394 -0.12756,0.13955 -5.84526,10.49451 -12.706,23.01101 -11.02336,20.11064 -12.55905,22.80987 -13.20466,23.20941 -0.97932,0.60605 -55.691285,29.22063 -55.870755,29.22063 -0.07741,0 0.175716,-0.5723 0.562511,-1.27177 z"
     id="path7910"
     transform="scale(0.75)" />
  <path
     style="fill:#000000;fill-opacity:0;fill-rule:evenodd;stroke:#000000;stroke-width:0"
     d="m 50.928776,338.54645 c 0.774385,-1.4004 9.940629,-18.52692 39.396798,-73.61033 l 19.532156,-36.52537 58.0556,-0.0512 58.05561,-0.0512 -18.21181,18.20059 -18.21182,18.20058 -28.58285,-0.29309 c -22.82692,-0.23406 -28.62956,-0.24199 -28.81478,-0.0394 -0.12756,0.13955 -5.84526,10.49451 -12.706,23.01101 -11.02336,20.11064 -12.55905,22.80987 -13.20466,23.20941 -0.97932,0.60605 -55.691285,29.22063 -55.870755,29.22063 -0.07741,0 0.175716,-0.5723 0.562511,-1.27177 z"
     id="path7912"
     transform="scale(0.75)" />
  <path
     style="fill:#000000;fill-opacity:0;fill-rule:evenodd;stroke:#000000;stroke-width:0"
     d="m 50.928776,338.54645 c 0.774385,-1.4004 9.940629,-18.52692 39.396798,-73.61033 l 19.532156,-36.52537 58.0556,-0.0512 58.05561,-0.0512 -18.21181,18.20059 -18.21182,18.20058 -28.58285,-0.29309 c -22.82692,-0.23406 -28.62956,-0.24199 -28.81478,-0.0394 -0.12756,0.13955 -5.84526,10.49451 -12.706,23.01101 -11.02336,20.11064 -12.55905,22.80987 -13.20466,23.20941 -0.97932,0.60605 -55.691285,29.22063 -55.870755,29.22063 -0.07741,0 0.175716,-0.5723 0.562511,-1.27177 z"
     id="path7914"
     transform="scale(0.75)" />
  <path
     style="fill:#000000;fill-opacity:0;fill-rule:evenodd;stroke:#000000;stroke-width:0"
     d="m 50.928776,338.54645 c 0.774385,-1.4004 9.940629,-18.52692 39.396798,-73.61033 l 19.532156,-36.52537 58.0556,-0.0512 58.05561,-0.0512 -18.21181,18.20059 -18.21182,18.20058 -28.58285,-0.29309 c -22.82692,-0.23406 -28.62956,-0.24199 -28.81478,-0.0394 -0.12756,0.13955 -5.84526,10.49451 -12.706,23.01101 -11.02336,20.11064 -12.55905,22.80987 -13.20466,23.20941 -0.97932,0.60605 -55.691285,29.22063 -55.870755,29.22063 -0.07741,0 0.175716,-0.5723 0.562511,-1.27177 z"
     id="path7916"
     transform="scale(0.75)" />
  <path
     style="fill:#000000;fill-opacity:0;fill-rule:evenodd;stroke:#000000;stroke-width:0"
     d="m 50.928776,338.54645 c 0.774385,-1.4004 9.940629,-18.52692 39.396798,-73.61033 l 19.532156,-36.52537 58.0556,-0.0512 58.05561,-0.0512 -18.21181,18.20059 -18.21182,18.20058 -28.58285,-0.29309 c -22.82692,-0.23406 -28.62956,-0.24199 -28.81478,-0.0394 -0.12756,0.13955 -5.84526,10.49451 -12.706,23.01101 -11.02336,20.11064 -12.55905,22.80987 -13.20466,23.20941 -0.97932,0.60605 -55.691285,29.22063 -55.870755,29.22063 -0.07741,0 0.175716,-0.5723 0.562511,-1.27177 z"
     id="path7918"
     transform="scale(0.75)" />
  <path
     style="fill:#000000;fill-opacity:0;fill-rule:evenodd;stroke:#000000;stroke-width:0"
     d="m 50.928776,338.54645 c 0.774385,-1.4004 9.940629,-18.52692 39.396798,-73.61033 l 19.532156,-36.52537 58.0556,-0.0512 58.05561,-0.0512 -18.21181,18.20059 -18.21182,18.20058 -28.58285,-0.29309 c -22.82692,-0.23406 -28.62956,-0.24199 -28.81478,-0.0394 -0.12756,0.13955 -5.84526,10.49451 -12.706,23.01101 -11.02336,20.11064 -12.55905,22.80987 -13.20466,23.20941 -0.97932,0.60605 -55.691285,29.22063 -55.870755,29.22063 -0.07741,0 0.175716,-0.5723 0.562511,-1.27177 z"
     id="path7920"
     transform="scale(0.75)" />
  <path
     style="fill:#000000;fill-opacity:0;fill-rule:evenodd;stroke:#000000;stroke-width:0"
     d="m 50.928776,338.54645 c 0.774385,-1.4004 9.940629,-18.52692 39.396798,-73.61033 l 19.532156,-36.52537 58.0556,-0.0512 58.05561,-0.0512 -18.21181,18.20059 -18.21182,18.20058 -28.58285,-0.29309 c -22.82692,-0.23406 -28.62956,-0.24199 -28.81478,-0.0394 -0.12756,0.13955 -5.84526,10.49451 -12.706,23.01101 -11.02336,20.11064 -12.55905,22.80987 -13.20466,23.20941 -0.97932,0.60605 -55.691285,29.22063 -55.870755,29.22063 -0.07741,0 0.175716,-0.5723 0.562511,-1.27177 z"
     id="path7922"
     transform="scale(0.75)" />
  <path
     style="fill:#000000;fill-opacity:0;fill-rule:evenodd;stroke:#000000;stroke-width:0"
     d="m 50.419288,339.56387 c 0.0553,-0.1399 4.760292,-8.9533 10.455535,-19.58533 5.695243,-10.63204 19.051583,-35.60495 29.680753,-55.49536 l 19.325764,-36.16439 58.09453,-0.005 58.09453,-0.005 -18.21167,18.20139 -18.21167,18.20139 -28.48462,-0.29336 c -15.66654,-0.16135 -28.62338,-0.24482 -28.79298,-0.18549 -0.1696,0.0593 -5.98557,10.46035 -12.92437,23.11337 l -12.61601,23.00548 -28.159645,14.73322 C 63.181629,333.18806 50.466802,339.818 50.414264,339.818 c -0.05254,0 -0.05028,-0.11446 0.005,-0.25435 z"
     id="path7924"
     transform="scale(0.75)" />
  <path
     style="fill:#000000;fill-opacity:0;fill-rule:evenodd;stroke:#000000;stroke-width:0"
     d="m 50.419288,339.56387 c 0.0553,-0.1399 4.760292,-8.9533 10.455535,-19.58533 5.695243,-10.63204 19.051583,-35.60495 29.680753,-55.49536 l 19.325764,-36.16439 58.09453,-0.005 58.09453,-0.005 -18.21167,18.20139 -18.21167,18.20139 -28.48462,-0.29336 c -15.66654,-0.16135 -28.62338,-0.24482 -28.79298,-0.18549 -0.1696,0.0593 -5.98557,10.46035 -12.92437,23.11337 l -12.61601,23.00548 -28.159645,14.73322 C 63.181629,333.18806 50.466802,339.818 50.414264,339.818 c -0.05254,0 -0.05028,-0.11446 0.005,-0.25435 z"
     id="path7926"
     transform="scale(0.75)" />
  <path
     style="fill:#000000;fill-opacity:0;fill-rule:evenodd;stroke:#000000;stroke-width:0"
     d="m 50.419288,339.56387 c 0.0553,-0.1399 4.760292,-8.9533 10.455535,-19.58533 5.695243,-10.63204 19.051583,-35.60495 29.680753,-55.49536 l 19.325764,-36.16439 58.09453,-0.005 58.09453,-0.005 -18.21167,18.20139 -18.21167,18.20139 -28.48462,-0.29336 c -15.66654,-0.16135 -28.62338,-0.24482 -28.79298,-0.18549 -0.1696,0.0593 -5.98557,10.46035 -12.92437,23.11337 l -12.61601,23.00548 -28.159645,14.73322 C 63.181629,333.18806 50.466802,339.818 50.414264,339.818 c -0.05254,0 -0.05028,-0.11446 0.005,-0.25435 z"
     id="path7928"
     transform="scale(0.75)" />
  <path
     style="fill:#000000;fill-opacity:0;fill-rule:evenodd;stroke:#000000;stroke-width:0"
     d="m 50.419288,339.56387 c 0.0553,-0.1399 4.760292,-8.9533 10.455535,-19.58533 5.695243,-10.63204 19.051583,-35.60495 29.680753,-55.49536 l 19.325764,-36.16439 58.09453,-0.005 58.09453,-0.005 -18.21167,18.20139 -18.21167,18.20139 -28.48462,-0.29336 c -15.66654,-0.16135 -28.62338,-0.24482 -28.79298,-0.18549 -0.1696,0.0593 -5.98557,10.46035 -12.92437,23.11337 l -12.61601,23.00548 -28.159645,14.73322 C 63.181629,333.18806 50.466802,339.818 50.414264,339.818 c -0.05254,0 -0.05028,-0.11446 0.005,-0.25435 z"
     id="path7930"
     transform="scale(0.75)" />
  <path
     style="fill:#000000;fill-opacity:0;fill-rule:evenodd;stroke:#000000;stroke-width:0"
     d="m 50.419288,339.56387 c 0.0553,-0.1399 4.760292,-8.9533 10.455535,-19.58533 5.695243,-10.63204 19.051583,-35.60495 29.680753,-55.49536 l 19.325764,-36.16439 58.09453,-0.005 58.09453,-0.005 -18.21167,18.20139 -18.21167,18.20139 -28.48462,-0.29336 c -15.66654,-0.16135 -28.62338,-0.24482 -28.79298,-0.18549 -0.1696,0.0593 -5.98557,10.46035 -12.92437,23.11337 l -12.61601,23.00548 -28.159645,14.73322 C 63.181629,333.18806 50.466802,339.818 50.414264,339.818 c -0.05254,0 -0.05028,-0.11446 0.005,-0.25435 z"
     id="path7932"
     transform="scale(0.75)" />
  <path
     style="fill:#000000;fill-opacity:0;fill-rule:evenodd;stroke:#000000;stroke-width:0"
     d="m 50.419288,339.56387 c 0.0553,-0.1399 4.760292,-8.9533 10.455535,-19.58533 5.695243,-10.63204 19.051583,-35.60495 29.680753,-55.49536 l 19.325764,-36.16439 58.09453,-0.005 58.09453,-0.005 -18.21167,18.20139 -18.21167,18.20139 -28.48462,-0.29336 c -15.66654,-0.16135 -28.62338,-0.24482 -28.79298,-0.18549 -0.1696,0.0593 -5.98557,10.46035 -12.92437,23.11337 l -12.61601,23.00548 -28.159645,14.73322 C 63.181629,333.18806 50.466802,339.818 50.414264,339.818 c -0.05254,0 -0.05028,-0.11446 0.005,-0.25435 z"
     id="path7934"
     transform="scale(0.75)" />
  <path
     style="fill:#000000;fill-opacity:0;fill-rule:evenodd;stroke:#000000;stroke-width:0"
     d="m 50.419288,339.56387 c 0.0553,-0.1399 4.760292,-8.9533 10.455535,-19.58533 5.695243,-10.63204 19.051583,-35.60495 29.680753,-55.49536 l 19.325764,-36.16439 58.09453,-0.005 58.09453,-0.005 -18.21167,18.20139 -18.21167,18.20139 -28.48462,-0.29336 c -15.66654,-0.16135 -28.62338,-0.24482 -28.79298,-0.18549 -0.1696,0.0593 -5.98557,10.46035 -12.92437,23.11337 l -12.61601,23.00548 -28.159645,14.73322 C 63.181629,333.18806 50.466802,339.818 50.414264,339.818 c -0.05254,0 -0.05028,-0.11446 0.005,-0.25435 z"
     id="path7936"
     transform="scale(0.75)" />
  <path
     style="fill:#000000;fill-opacity:0;fill-rule:evenodd;stroke:#000000;stroke-width:0"
     d="m 50.419288,339.56387 c 0.0553,-0.1399 4.760292,-8.9533 10.455535,-19.58533 5.695243,-10.63204 19.051583,-35.60495 29.680753,-55.49536 l 19.325764,-36.16439 58.09453,-0.005 58.09453,-0.005 -18.21167,18.20139 -18.21167,18.20139 -28.48462,-0.29336 c -15.66654,-0.16135 -28.62338,-0.24482 -28.79298,-0.18549 -0.1696,0.0593 -5.98557,10.46035 -12.92437,23.11337 l -12.61601,23.00548 -28.159645,14.73322 C 63.181629,333.18806 50.466802,339.818 50.414264,339.818 c -0.05254,0 -0.05028,-0.11446 0.005,-0.25435 z"
     id="path7938"
     transform="scale(0.75)" />
  <path
     style="fill:#000000;fill-opacity:0;fill-rule:evenodd;stroke:#000000;stroke-width:0"
     d="m 50.419288,339.56387 c 0.0553,-0.1399 4.760292,-8.9533 10.455535,-19.58533 5.695243,-10.63204 19.051583,-35.60495 29.680753,-55.49536 l 19.325764,-36.16439 58.09453,-0.005 58.09453,-0.005 -18.21167,18.20139 -18.21167,18.20139 -28.48462,-0.29336 c -15.66654,-0.16135 -28.62338,-0.24482 -28.79298,-0.18549 -0.1696,0.0593 -5.98557,10.46035 -12.92437,23.11337 l -12.61601,23.00548 -28.159645,14.73322 C 63.181629,333.18806 50.466802,339.818 50.414264,339.818 c -0.05254,0 -0.05028,-0.11446 0.005,-0.25435 z"
     id="path7940"
     transform="scale(0.75)" />
  <path
     style="fill:#000000;fill-opacity:0;fill-rule:evenodd;stroke:#000000;stroke-width:0"
     d="m 50.419288,339.56387 c 0.0553,-0.1399 4.760292,-8.9533 10.455535,-19.58533 5.695243,-10.63204 19.051583,-35.60495 29.680753,-55.49536 l 19.325764,-36.16439 58.09453,-0.005 58.09453,-0.005 -18.21167,18.20139 -18.21167,18.20139 -28.48462,-0.29336 c -15.66654,-0.16135 -28.62338,-0.24482 -28.79298,-0.18549 -0.1696,0.0593 -5.98557,10.46035 -12.92437,23.11337 l -12.61601,23.00548 -28.159645,14.73322 C 63.181629,333.18806 50.466802,339.818 50.414264,339.818 c -0.05254,0 -0.05028,-0.11446 0.005,-0.25435 z"
     id="path7942"
     transform="scale(0.75)" />
  <path
     style="fill:#000000;fill-opacity:0;fill-rule:evenodd;stroke:#000000;stroke-width:0"
     d="m 50.419288,339.56387 c 0.0553,-0.1399 4.760292,-8.9533 10.455535,-19.58533 5.695243,-10.63204 19.051583,-35.60495 29.680753,-55.49536 l 19.325764,-36.16439 58.09453,-0.005 58.09453,-0.005 -18.21167,18.20139 -18.21167,18.20139 -28.48462,-0.29336 c -15.66654,-0.16135 -28.62338,-0.24482 -28.79298,-0.18549 -0.1696,0.0593 -5.98557,10.46035 -12.92437,23.11337 l -12.61601,23.00548 -28.159645,14.73322 C 63.181629,333.18806 50.466802,339.818 50.414264,339.818 c -0.05254,0 -0.05028,-0.11446 0.005,-0.25435 z"
     id="path7944"
     transform="scale(0.75)" />
  <path
     style="fill:#000000;fill-opacity:0;fill-rule:evenodd;stroke:#000000;stroke-width:0"
     d="m 50.419288,339.56387 c 0.0553,-0.1399 4.760292,-8.9533 10.455535,-19.58533 5.695243,-10.63204 19.051583,-35.60495 29.680753,-55.49536 l 19.325764,-36.16439 58.09453,-0.005 58.09453,-0.005 -18.21167,18.20139 -18.21167,18.20139 -28.48462,-0.29336 c -15.66654,-0.16135 -28.62338,-0.24482 -28.79298,-0.18549 -0.1696,0.0593 -5.98557,10.46035 -12.92437,23.11337 l -12.61601,23.00548 -28.159645,14.73322 C 63.181629,333.18806 50.466802,339.818 50.414264,339.818 c -0.05254,0 -0.05028,-0.11446 0.005,-0.25435 z"
     id="path7946"
     transform="scale(0.75)" />
  <path
     style="fill:#000000;fill-opacity:0;fill-rule:evenodd;stroke:#000000;stroke-width:0"
     d="m 50.419288,339.56387 c 0.0553,-0.1399 4.760292,-8.9533 10.455535,-19.58533 5.695243,-10.63204 19.051583,-35.60495 29.680753,-55.49536 l 19.325764,-36.16439 58.09453,-0.005 58.09453,-0.005 -18.21167,18.20139 -18.21167,18.20139 -28.48462,-0.29336 c -15.66654,-0.16135 -28.62338,-0.24482 -28.79298,-0.18549 -0.1696,0.0593 -5.98557,10.46035 -12.92437,23.11337 l -12.61601,23.00548 -28.159645,14.73322 C 63.181629,333.18806 50.466802,339.818 50.414264,339.818 c -0.05254,0 -0.05028,-0.11446 0.005,-0.25435 z"
     id="path7948"
     transform="scale(0.75)" />
  <path
     style="fill:#000000;fill-opacity:0;fill-rule:evenodd;stroke:#000000;stroke-width:0"
     d="m 50.419288,339.56387 c 0.0553,-0.1399 4.760292,-8.9533 10.455535,-19.58533 5.695243,-10.63204 19.051583,-35.60495 29.680753,-55.49536 l 19.325764,-36.16439 58.09453,-0.005 58.09453,-0.005 -18.21167,18.20139 -18.21167,18.20139 -28.48462,-0.29336 c -15.66654,-0.16135 -28.62338,-0.24482 -28.79298,-0.18549 -0.1696,0.0593 -5.98557,10.46035 -12.92437,23.11337 l -12.61601,23.00548 -28.159645,14.73322 C 63.181629,333.18806 50.466802,339.818 50.414264,339.818 c -0.05254,0 -0.05028,-0.11446 0.005,-0.25435 z"
     id="path7950"
     transform="scale(0.75)" />
  <path
     style="fill:#000000;fill-opacity:0;fill-rule:evenodd;stroke:#000000;stroke-width:0"
     d="m 50.419288,339.56387 c 0.0553,-0.1399 4.760292,-8.9533 10.455535,-19.58533 5.695243,-10.63204 19.051583,-35.60495 29.680753,-55.49536 l 19.325764,-36.16439 58.09453,-0.005 58.09453,-0.005 -18.21167,18.20139 -18.21167,18.20139 -28.48462,-0.29336 c -15.66654,-0.16135 -28.62338,-0.24482 -28.79298,-0.18549 -0.1696,0.0593 -5.98557,10.46035 -12.92437,23.11337 l -12.61601,23.00548 -28.159645,14.73322 C 63.181629,333.18806 50.466802,339.818 50.414264,339.818 c -0.05254,0 -0.05028,-0.11446 0.005,-0.25435 z"
     id="path7952"
     transform="scale(0.75)" />
  <path
     style="fill:#ff00ff;fill-opacity:0;fill-rule:evenodd;stroke:#000000;stroke-width:0"
     d="m 50.419288,339.56387 c 0.0553,-0.1399 4.760292,-8.9533 10.455535,-19.58533 5.695243,-10.63204 19.051583,-35.60495 29.680753,-55.49536 l 19.325764,-36.16439 58.09453,-0.005 58.09453,-0.005 -18.21167,18.20139 -18.21167,18.20139 -28.48462,-0.29336 c -15.66654,-0.16135 -28.62338,-0.24482 -28.79298,-0.18549 -0.1696,0.0593 -5.98557,10.46035 -12.92437,23.11337 l -12.61601,23.00548 -28.159645,14.73322 C 63.181629,333.18806 50.466802,339.818 50.414264,339.818 c -0.05254,0 -0.05028,-0.11446 0.005,-0.25435 z"
     id="path7954"
     transform="scale(0.75)" />
  <path
     style="fill:#ff00ff;fill-opacity:0;fill-rule:evenodd;stroke:#000000;stroke-width:0"
     d="m 50.419288,339.56387 c 0.0553,-0.1399 4.760292,-8.9533 10.455535,-19.58533 5.695243,-10.63204 19.051583,-35.60495 29.680753,-55.49536 l 19.325764,-36.16439 58.09453,-0.005 58.09453,-0.005 -18.21167,18.20139 -18.21167,18.20139 -28.48462,-0.29336 c -15.66654,-0.16135 -28.62338,-0.24482 -28.79298,-0.18549 -0.1696,0.0593 -5.98557,10.46035 -12.92437,23.11337 l -12.61601,23.00548 -28.159645,14.73322 C 63.181629,333.18806 50.466802,339.818 50.414264,339.818 c -0.05254,0 -0.05028,-0.11446 0.005,-0.25435 z"
     id="path8025"
     transform="scale(0.75)" />
  <path
     style="fill:#ff00ff;fill-opacity:0;fill-rule:evenodd;stroke:#000000;stroke-width:0"
     d="m 50.419288,339.56387 c 0.0553,-0.1399 4.760292,-8.9533 10.455535,-19.58533 5.695243,-10.63204 19.051583,-35.60495 29.680753,-55.49536 l 19.325764,-36.16439 58.09453,-0.005 58.09453,-0.005 -18.21167,18.20139 -18.21167,18.20139 -28.48462,-0.29336 c -15.66654,-0.16135 -28.62338,-0.24482 -28.79298,-0.18549 -0.1696,0.0593 -5.98557,10.46035 -12.92437,23.11337 l -12.61601,23.00548 -28.159645,14.73322 C 63.181629,333.18806 50.466802,339.818 50.414264,339.818 c -0.05254,0 -0.05028,-0.11446 0.005,-0.25435 z"
     id="path8027"
     transform="scale(0.75)" />
  <path
     style="fill:#ff00ff;fill-opacity:0;fill-rule:evenodd;stroke:#000000;stroke-width:0"
     d="m 50.419288,339.56387 c 0.0553,-0.1399 4.760292,-8.9533 10.455535,-19.58533 5.695243,-10.63204 19.051583,-35.60495 29.680753,-55.49536 l 19.325764,-36.16439 58.09453,-0.005 58.09453,-0.005 -18.21167,18.20139 -18.21167,18.20139 -28.48462,-0.29336 c -15.66654,-0.16135 -28.62338,-0.24482 -28.79298,-0.18549 -0.1696,0.0593 -5.98557,10.46035 -12.92437,23.11337 l -12.61601,23.00548 -28.159645,14.73322 C 63.181629,333.18806 50.466802,339.818 50.414264,339.818 c -0.05254,0 -0.05028,-0.11446 0.005,-0.25435 z"
     id="path8029"
     transform="scale(0.75)" />
  <path
     style="fill:#ff00ff;fill-opacity:0;fill-rule:evenodd;stroke:#000000;stroke-width:0"
     d="m 50.419288,339.56387 c 0.0553,-0.1399 4.760292,-8.9533 10.455535,-19.58533 5.695243,-10.63204 19.051583,-35.60495 29.680753,-55.49536 l 19.325764,-36.16439 58.09453,-0.005 58.09453,-0.005 -18.21167,18.20139 -18.21167,18.20139 -28.48462,-0.29336 c -15.66654,-0.16135 -28.62338,-0.24482 -28.79298,-0.18549 -0.1696,0.0593 -5.98557,10.46035 -12.92437,23.11337 l -12.61601,23.00548 -28.159645,14.73322 C 63.181629,333.18806 50.466802,339.818 50.414264,339.818 c -0.05254,0 -0.05028,-0.11446 0.005,-0.25435 z"
     id="path8031"
     transform="scale(0.75)" />
  <path
     style="fill:#ff00ff;fill-opacity:0;fill-rule:evenodd;stroke:#000000;stroke-width:0"
     d="m 50.419288,339.56387 c 0.0553,-0.1399 4.760292,-8.9533 10.455535,-19.58533 5.695243,-10.63204 19.051583,-35.60495 29.680753,-55.49536 l 19.325764,-36.16439 58.09453,-0.005 58.09453,-0.005 -18.21167,18.20139 -18.21167,18.20139 -28.48462,-0.29336 c -15.66654,-0.16135 -28.62338,-0.24482 -28.79298,-0.18549 -0.1696,0.0593 -5.98557,10.46035 -12.92437,23.11337 l -12.61601,23.00548 -28.159645,14.73322 C 63.181629,333.18806 50.466802,339.818 50.414264,339.818 c -0.05254,0 -0.05028,-0.11446 0.005,-0.25435 z"
     id="path8033"
     transform="scale(0.75)" />
  <path
     style="opacity:1;fill:none;fill-opacity:1;fill-rule:evenodd;stroke:#04d201;stroke-width:0;stroke-opacity:1"
     d="m 274.51714,149.05497 c -0.44363,-0.0652 -1.47961,-0.28879 -2.30216,-0.49682 -8.07602,-2.04249 -14.67641,-8.17352 -17.32708,-16.09492 -0.86158,-2.5748 -1.09333,-3.91037 -1.17699,-6.78285 -0.0877,-3.00957 0.0888,-4.98483 0.62957,-7.04729 1.1722,-4.47075 3.31583,-8.22839 6.52456,-11.43712 2.06251,-2.06251 3.81119,-3.31857 6.40115,-4.59789 3.40701,-1.6829 6.22792,-2.41253 9.85611,-2.54929 4.21047,-0.158709 7.61427,0.53935 11.33421,2.32446 10.35871,4.9709 15.89089,16.14301 13.55606,27.37618 -0.81939,3.94219 -2.89359,8.09987 -5.56534,11.15557 -3.80267,4.34913 -9.80521,7.57241 -15.18257,8.15282 -1.607,0.17346 -5.55955,0.17178 -6.74752,-0.003 z"
     id="path15051"
     transform="scale(0.75)" />
  <path
     style="opacity:1;fill:url(#linearGradient15085);fill-opacity:1;fill-rule:evenodd;stroke:#04d201;stroke-width:0;stroke-opacity:1"
     d="m 200.82666,114.47578 c -0.34546,-0.05 -1.15219,-0.22166 -1.79274,-0.38133 -6.28892,-1.56774 -11.42875,-6.27368 -13.49287,-12.35383 -0.67092,-1.976321 -0.85139,-3.001451 -0.91653,-5.206261 -0.0684,-2.31003 0.0692,-3.82616 0.49025,-5.409225 0.91282,-3.431574 2.58208,-6.315793 5.08077,-8.77869 1.60612,-1.583102 2.96784,-2.547205 4.98468,-3.529161 2.6531,-1.291729 4.84979,-1.851765 7.67511,-1.956737 3.27877,-0.121819 5.92937,0.413985 8.82614,1.784165 8.06649,3.81547 12.37449,12.390749 10.55633,21.012898 -0.63808,3.025881 -2.25329,6.217141 -4.33383,8.562571 -2.9612,3.33822 -7.63548,5.81229 -11.82291,6.25779 -1.2514,0.13314 -4.32931,0.13185 -5.2544,-0.002 z"
     id="path15053" />
  <path
     style="opacity:1;fill:#ffffff;fill-opacity:1;fill-rule:evenodd;stroke:#04d201;stroke-width:0;stroke-opacity:1"
     d="m 50.870991,339.19205 c 0,-0.1497 13.316413,-25.15963 29.592028,-55.57761 l 29.592031,-55.30543 h 57.80262 57.80262 l -18.10836,18.14011 -18.10836,18.1401 -28.69124,-0.27078 -28.69124,-0.27078 -12.64927,23.09585 -12.64927,23.09586 -20.111647,10.5324 c -32.330081,16.93114 -35.779912,18.70718 -35.779912,18.42028 z"
     id="path15089"
     transform="scale(0.75)" />
  <path
     style="opacity:1;fill:#ffffff;fill-opacity:1;fill-rule:evenodd;stroke:#04d201;stroke-width:0;stroke-opacity:1"
     d="m 263.08263,291.42966 -1.65001,-0.2441 22.55997,-18.23137 22.55996,-18.23136 5.54296,0.31304 c 9.53643,0.53857 35.30223,0.39909 38.30388,-0.20736 10.66661,-2.15507 21.06771,-8.47005 24.92045,-15.13035 3.15579,-5.45544 3.92627,-15.6502 1.53677,-20.33399 -1.95693,-3.83592 -4.25274,-5.5155 -10.30111,-7.53616 -6.47672,-2.16377 -10.17825,-2.38577 -34.6156,-2.07609 l -21.10478,0.26744 14.79678,-15.30587 c 8.13823,-8.41822 15.93052,-16.54434 17.31621,-18.05803 l 2.51944,-2.75217 9.48612,-0.27046 c 14.44959,-0.41198 25.34557,0.42176 31.72238,2.42732 6.4667,2.03383 18.53938,11.28423 23.48447,17.99438 3.96046,5.37409 5.53652,9.50883 6.3856,16.75236 1.63522,13.95018 -0.18526,27.70138 -4.91495,37.1256 -4.11509,8.19959 -14.54051,20.80664 -22.56983,27.29281 -7.28398,5.88408 -12.27663,8.46563 -23.83655,12.3252 -8.10477,2.70597 -11.92022,3.3491 -22.76128,3.83661 -9.17147,0.41243 -76.63621,0.44859 -79.38088,0.0426 z"
     id="path15091"
     transform="scale(0.75)" />
  <path
     style="fill:#000000;fill-opacity:1;fill-rule:evenodd;stroke:#04d201;stroke-width:0;stroke-opacity:1"
     d="m 116.77919,272.96482 c 0.19686,-0.51839 7.08587,-12.83898 30.60736,-54.73942 13.12943,-23.38835 25.97388,-46.42788 30.3309,-54.40555 1.21453,-2.22381 2.12308,-4.18107 2.019,-4.34948 -0.12246,-0.19814 -5.55064,-0.30619 -15.38197,-0.30619 -8.35601,0 -29.62188,-0.0913 -47.25749,-0.20279 l -32.064763,-0.20278 2.00147,-2.77317 c 1.10079,-1.52524 5.503022,-7.58048 9.782702,-13.45608 4.279701,-5.87559 7.808311,-10.72101 7.841381,-10.76759 0.0331,-0.0466 15.35961,-0.21378 34.059,-0.37156 20.44983,-0.17255 35.33688,-0.42195 37.35636,-0.62583 9.23036,-0.93182 22.06789,-3.9021 29.91214,-6.92092 9.62769,-3.70516 31.13717,-15.6196 62.49685,-34.617977 4.69806,-2.84619 8.58823,-5.12859 8.64481,-5.072002 0.0566,0.05655 -10.21271,11.360056 -22.82065,25.118829 -37.03945,40.42033 -50.28596,54.96206 -53.62308,58.86625 -0.84234,0.98549 -0.93896,1.23543 -0.55967,1.44769 0.25215,0.14111 7.16366,0.4032 15.35892,0.58242 8.19526,0.17923 15.369,0.42322 15.94165,0.5422 l 1.04117,0.21632 -7.89854,6.08341 c -21.07228,16.22974 -36.48009,28.37179 -41.7345,32.88866 -3.21967,2.76775 -10.15508,9.41387 -38.93436,37.31039 -25.36255,24.58461 -27.41407,26.53299 -27.11869,25.75517 z"
     id="path23619-6" />
</svg>
